<svg width="100%" height="100%" viewBox="0 0 467 147" fill="currentColor" version="1.1"
  xmlns="http://www.w3.org/2000/svg"
  xmlns:xlink="http://www.w3.org/1999/xlink" xml:space="preserve"
  xmlns:serif="http://www.serif.com/" style="fill-rule:evenodd;clip-rule:evenodd;stroke-linejoin:round;stroke-miterlimit:2;">
  <g>
    <path d="M89.632,44.672l-0,-41.872l-15.632,-0l0,56l35.562,-0l-0,-14.128l-19.93,-0Z" style="fill-rule:nonzero;"/>
    <path d="M135.053,60.216c14.039,-0 24.221,-9.67 24.221,-23.016c-0,-13.391 -10.182,-23.015 -24.221,-23.015c-14.085,-0 -24.221,9.624 -24.221,23.015c0,13.346 10.136,23.016 24.221,23.016Zm-0,-13.367c-5.426,-0 -9.317,-3.937 -9.317,-9.648c-0,-5.711 3.891,-9.648 9.317,-9.648c5.425,-0 9.317,3.971 9.317,9.649c-0,5.711 -3.892,9.648 -9.317,9.648l-0,-0.001Z" style="fill-rule:nonzero;"/>
    <path d="M185.853,60.216c14.039,-0 24.221,-9.67 24.221,-23.016c-0,-13.391 -10.182,-23.015 -24.221,-23.015c-14.085,-0 -24.221,9.624 -24.221,23.015c0,13.346 10.136,23.016 24.221,23.016Zm-0,-13.367c-5.426,-0 -9.317,-3.937 -9.317,-9.648c-0,-5.711 3.891,-9.648 9.317,-9.648c5.425,-0 9.317,3.971 9.317,9.649c-0,5.711 -3.892,9.648 -9.317,9.648l-0,-0.001Z" style="fill-rule:nonzero;"/>
    <path d="M258.834,58.8l-14.825,-22.61l13.463,-20.59l-16.708,-0l-10.291,16.924l-0,-32.524l-14.88,0l-0,58.8l14.88,-0l-0,-18.269l10.82,18.269l17.541,-0Z" style="fill-rule:nonzero;"/>
    <path d="M303.222,36.79c0,-12.671 -9.641,-22.605 -23.566,-22.605c-13.559,-0 -23.465,9.738 -23.465,22.982c0,13.198 9.986,23.05 23.465,23.05c10.838,-0 19.578,-6.16 22.618,-16.019l-14.808,-0c-1.43,2.528 -4.334,4.051 -7.81,4.051c-4.698,-0 -7.846,-2.563 -8.819,-7.518l32.077,0c0.194,-1.336 0.308,-2.637 0.308,-3.939l0,-0.002Zm-23.567,-10.946c4.491,-0 7.603,2.33 8.908,6.647l-17.464,0c1.204,-4.291 4.219,-6.647 8.556,-6.647Z" style="fill-rule:nonzero;"/>
    <path d="M332.178,15.394c-5.142,0 -8.853,1.476 -11.9,5l-2.321,-4.794l-9.969,-0l-0,43.2l14.88,0l-0,-21.968c-0,-5.51 2.206,-7.821 7.474,-7.821l5.777,0l0,-13.617l-3.941,0Z" style="fill-rule:nonzero;"/>
    <path d="M368.303,33.201l-0.19,6.413c-1.965,-4.158 -6.059,-6.89 -11.205,-6.89c-7.134,0 -12.519,5.487 -12.519,12.747c0,7.247 5.385,12.746 12.519,12.746c5.142,-0 9.233,-2.733 11.199,-6.884l0.161,6.407l1.272,-0l0,-24.539l-1.237,-0Zm-11.316,23.596c-6.339,-0 -11.121,-4.862 -11.121,-11.326c-0,-6.43 4.782,-11.327 11.121,-11.327c6.408,0 11.077,4.783 11.077,11.327c-0,6.543 -4.669,11.326 -11.077,11.326Z" style="fill-rule:nonzero;stroke:currentColor;stroke-width:3px;"/>
    <path d="M389.91,56.365c-3.828,-0 -6.021,-2.261 -6.021,-6.135l0,-15.7l8.907,0l-0,-1.284l-8.907,0l0,-7.259l-1.454,0l-0,7.259l-5.658,0l0,1.284l5.658,0l-0,15.757c-0,4.646 2.783,7.464 7.35,7.464l3.215,-0l0,-1.386l-3.09,-0Z" style="fill-rule:nonzero;stroke:currentColor;stroke-width:3px;"/>
  </g>
  <path d="M17.062,114.131l0,-43.672l-17.062,0l-0,58.407l38.815,-0l0,-14.735l-21.753,-0Z" style="fill-rule:nonzero;"/>
  <path d="M42.636,78.171l15.993,-0l-0,-13.171l-15.993,-0l0,13.171Zm-0.124,50.694l16.242,0l-0,-45.056l-16.242,-0l0,45.056Z" style="fill-rule:nonzero;"/>
  <path d="M103.699,83.809l-2.06,3.781c-3.997,-3.266 -9.165,-5.222 -14.872,-5.222c-13.519,0 -23.564,9.814 -23.564,22.661c0,13.036 10.045,22.646 23.564,22.646c4.551,0 8.759,-1.233 12.304,-3.382l-0,1.345c-0,5.357 -4.374,8.662 -9.817,8.662c-3.945,0 -7.969,-1.623 -9.094,-4.634l-15.673,0c2.17,10.678 11.537,17.125 24.917,17.125c15.575,-0 25.275,-8.771 25.275,-22.93l0,-40.051l-10.98,-0.001Zm-14.237,31.089c-5.882,-0 -10.065,-4.13 -10.065,-9.869c-0,-5.692 4.234,-9.821 10.066,-9.821c5.845,-0 10.029,4.129 10.029,9.821c-0,5.739 -4.197,9.869 -10.029,9.869l-0.001,-0Z" style="fill-rule:nonzero;"/>
  <path d="M150.713,82.477c-4.699,-0 -9.115,1.625 -12.587,4.297l-0,-19.235l-16.241,0l-0,61.327l16.241,-0l-0,-24.06c-0,-5.782 3.064,-9.115 7.978,-9.115c4.239,0 6.149,2.649 6.149,7.846l0,25.329l16.242,-0l-0,-27.132c-0,-11.679 -6.957,-19.257 -17.782,-19.257Z" style="fill-rule:nonzero;"/>
  <path d="M200.366,115.273c-3.426,0 -5.464,-1.947 -5.464,-5.173l-0,-14.339l11.436,0l0,-11.952l-11.846,0l0,-13.173l-3.336,0l-21.126,21.497l-0,3.628l8.63,0l0,17.001c0,10.013 6.338,16.104 16.766,16.104l11.174,-0l-0,-13.593l-6.234,0Z" style="fill-rule:nonzero;"/>
  <path d="M229.314,130.343c12.532,-0 20.849,-6.162 20.849,-15.578c-0,-11.426 -9.904,-12.905 -17.352,-14.17c-4.48,-0.763 -8.086,-1.36 -8.086,-3.924c-0,-2.088 1.749,-3.32 4.353,-3.32c2.942,0 4.966,1.338 4.966,4.215l15.21,-0c-0.185,-9.13 -7.967,-15.233 -19.975,-15.233c-12.081,-0 -20.135,5.83 -20.135,14.862c-0,10.927 9.692,13.036 17.003,14.168c4.53,0.716 8.1,1.457 8.1,4.056c0,2.329 -2.252,3.487 -4.628,3.487c-3.08,-0 -5.48,-1.517 -5.48,-4.812l-15.633,0c0.149,9.762 7.959,16.248 20.811,16.248l-0.003,0.001Z" style="fill-rule:nonzero;"/>
  <path d="M282.248,82.333c-5.603,-0 -10.593,1.852 -14.471,5.056l-2.035,-3.58l-11.045,0l0,61.327l16.056,0l0,-17.738c3.328,1.921 7.231,2.992 11.495,2.992c14.418,0 24.725,-10.015 24.725,-24.052c-0,-14.038 -10.307,-24.005 -24.725,-24.005Zm-2.172,34.315c-6.084,0 -10.555,-4.392 -10.555,-10.311c-0,-5.919 4.471,-10.311 10.555,-10.311c6.083,-0 10.555,4.392 10.555,10.311c-0,5.919 -4.509,10.311 -10.555,10.311Z" style="fill-rule:nonzero;"/>
  <path d="M359.954,105.91c0,-13.215 -10.523,-23.577 -25.722,-23.577c-14.8,0 -25.612,10.157 -25.612,23.97c0,13.765 10.9,24.041 25.612,24.041c11.83,-0 21.369,-6.425 24.687,-16.708l-16.162,0c-1.561,2.638 -4.731,4.225 -8.525,4.225c-5.128,0 -8.563,-2.672 -9.626,-7.84l35.012,-0c0.212,-1.394 0.336,-2.751 0.336,-4.109l0,-0.002Zm-25.723,-11.416c4.901,-0 8.298,2.429 9.723,6.933l-19.062,-0c1.314,-4.476 4.605,-6.933 9.339,-6.933Z" style="fill-rule:nonzero;"/>
  <path d="M412.87,105.91c-0,-13.215 -10.524,-23.577 -25.723,-23.577c-14.799,0 -25.611,10.157 -25.611,23.97c-0,13.765 10.899,24.041 25.611,24.041c11.83,-0 21.369,-6.425 24.687,-16.708l-16.162,0c-1.561,2.638 -4.731,4.225 -8.525,4.225c-5.128,0 -8.563,-2.672 -9.626,-7.84l35.013,-0c0.211,-1.394 0.335,-2.751 0.335,-4.109l0.001,-0.002Zm-25.723,-11.416c4.901,-0 8.297,2.429 9.723,6.933l-19.062,-0c1.314,-4.476 4.605,-6.933 9.339,-6.933Z" style="fill-rule:nonzero;"/>
  <path d="M450.944,67.539l-0,17.922c-3.38,-2.006 -7.363,-3.128 -11.717,-3.128c-14.469,-0 -24.775,10.002 -24.775,24.005c0,14.002 10.306,24.052 24.775,24.052c5.493,0 10.386,-1.784 14.223,-4.87l1.531,3.346l12.019,-0l-0,-61.327l-16.056,0Zm-9.544,49.11c-6.084,-0 -10.555,-4.427 -10.555,-10.31c-0,-5.885 4.471,-10.312 10.555,-10.312c6.083,0 10.555,4.427 10.555,10.312c-0,5.883 -4.472,10.31 -10.555,10.31Z" style="fill-rule:nonzero;"/>
</svg>
