<?xml version="1.0" encoding="UTF-8" standalone="no"?><!DOCTYPE svg PUBLIC "-//W3C//DTD SVG 1.1//EN" "http://www.w3.org/Graphics/SVG/1.1/DTD/svg11.dtd"><svg width="100%" height="100%" viewBox="0 0 612 100" version="1.1" xmlns="http://www.w3.org/2000/svg" xmlns:xlink="http://www.w3.org/1999/xlink" xml:space="preserve" xmlns:serif="http://www.serif.com/" style="fill-rule:evenodd;clip-rule:evenodd;stroke-linejoin:round;stroke-miterlimit:2;"><rect id="Artboard1" x="0" y="0" width="612" height="100" style="fill:none;"/><g><g><path d="M75.059,27.507l3.416,0l9.735,-9.735l0.479,-4.134c-18.14,-16.021 -45.775,-14.279 -61.797,3.826c-4.475,5.022 -7.686,11 -9.428,17.49l0,-0.034c1.059,-0.478 2.255,-0.546 3.382,-0.205l19.471,-3.211c0,0 0.991,-1.64 1.504,-1.537l-0.035,-0c8.643,-9.531 23.229,-10.624 33.238,-2.562l0.035,0.102Z" style="fill:#ea4335;fill-rule:nonzero;"/><path d="M102.08,34.988c-2.255,-8.266 -6.867,-15.679 -13.221,-21.316l-13.664,13.665l-0.034,-0.035c5.739,4.715 9.053,11.786 8.882,19.233l-0,2.425l-0.034,0c6.695,-0.034 12.161,5.432 12.161,12.127c-0,6.695 -5.466,12.161 -12.161,12.161l-24.323,0l-2.425,2.46l0,14.586l2.425,2.426l24.323,-0c17.456,0.102 31.735,-13.938 31.871,-31.394c0.069,-10.59 -5.158,-20.53 -13.937,-26.474l0.137,0.136Z" style="fill:#4285f4;fill-rule:nonzero;"/><path d="M35.433,92.685l24.322,0l-0,-19.471l-24.322,-0c-1.743,-0.034 -3.451,-0.376 -5.022,-1.093l-3.416,1.059l-9.804,9.736l-0.854,3.416l-0.034,-0.035c5.465,4.134 12.195,6.354 19.061,6.354l0.069,0.034Z" style="fill:#34a853;fill-rule:nonzero;"/><path d="M35.433,29.523l-0,-0.034c-17.491,0.102 -31.565,14.347 -31.462,31.803c0.034,9.736 4.611,18.925 12.332,24.869l14.108,-14.108l-0.034,-0.035c-6.149,-2.767 -8.848,-9.974 -6.081,-16.089c2.733,-6.149 9.941,-8.848 16.09,-6.081c2.664,1.196 4.851,3.348 6.046,6.047l14.108,-14.109l-0.034,-0.034c-6.012,-7.857 -15.338,-12.468 -25.21,-12.4l0.137,0.171Z" style="fill:#fbbc05;fill-rule:nonzero;"/><path d="M180.751,79.09l0,-0.035c-8.472,0.103 -16.602,-3.245 -22.546,-9.257l-0.034,-0.034c-6.149,-5.773 -9.599,-13.869 -9.462,-22.273l-0.035,-0.034c-0.102,-8.438 3.314,-16.499 9.463,-22.273l-0,-0.034c5.91,-6.114 14.04,-9.496 22.512,-9.428l-0.035,-0c8.062,-0.137 15.851,3.006 21.59,8.677l-6.081,6.183c-4.167,-4.031 -9.77,-6.252 -15.543,-6.149l-0.034,-0.034c-6.08,-0.103 -11.922,2.391 -16.055,6.832l-0.034,-0c-4.339,4.27 -6.73,10.111 -6.593,16.226l-0.035,0c-0.068,5.978 2.323,11.785 6.593,15.987l-0.034,-0.034c8.779,8.745 22.956,8.916 31.974,0.376l-0.034,-0c2.665,-2.938 4.304,-6.696 4.646,-10.658l-20.496,-0l-0,-8.745l29.002,-0c0.273,1.742 0.376,3.518 0.307,5.329l-0.034,-0.035c0.342,7.447 -2.357,14.724 -7.481,20.155l0,-0.034c-5.739,5.944 -13.732,9.189 -21.965,8.916l0.444,0.376Zm67.433,-5.808l-0,-0.034c-8.096,7.72 -20.872,7.72 -28.934,0c-3.929,-3.826 -6.081,-9.087 -5.944,-14.518l-0.034,-0.034c-0.171,-5.466 1.981,-10.727 5.91,-14.518l-0.035,-0c8.062,-7.755 20.838,-7.755 28.934,-0.035l-0.034,-0.034c3.894,3.792 6.046,9.053 5.91,14.484l-0.034,-0.034c0.136,5.432 -2.016,10.692 -5.944,14.518l0.205,0.205Zm-22.546,-5.704l-0.034,-0.035c4.167,4.441 11.17,4.68 15.611,0.513c0.171,-0.171 0.342,-0.342 0.512,-0.547l0,-0.034c2.255,-2.357 3.485,-5.568 3.382,-8.813l-0.034,-0c0.068,-3.314 -1.161,-6.491 -3.416,-8.848l-0.034,-0.034c-4.304,-4.509 -11.444,-4.646 -15.919,-0.342c-0.136,0.103 -0.239,0.205 -0.341,0.308l-0,-0.034c-2.289,2.357 -3.519,5.534 -3.416,8.847l-0.035,0c-0.102,3.28 1.128,6.456 3.451,8.779l0.273,0.24Zm67.023,5.704l-0,-0.034c-8.096,7.72 -20.872,7.72 -28.934,0c-3.929,-3.826 -6.081,-9.087 -5.944,-14.518l-0.034,-0.034c-0.171,-5.466 1.981,-10.727 5.909,-14.518l-0.034,-0c8.062,-7.755 20.838,-7.755 28.934,-0.035l-0.034,-0.034c3.894,3.792 6.046,9.053 5.91,14.484c0.136,5.432 -2.016,10.693 -5.944,14.484l0.171,0.205Zm-22.546,-5.704l-0.034,-0.035c4.167,4.441 11.17,4.68 15.611,0.513c0.171,-0.171 0.342,-0.342 0.512,-0.547l0,-0.034c2.255,-2.357 3.485,-5.568 3.382,-8.813l-0.034,-0c0.068,-3.314 -1.161,-6.491 -3.416,-8.848l-0.034,-0.034c-4.304,-4.509 -11.444,-4.646 -15.919,-0.342c-0.137,0.103 -0.239,0.205 -0.342,0.308l0,-0.034c-2.288,2.357 -3.518,5.534 -3.416,8.847l-0.034,0c-0.102,3.28 1.128,6.456 3.45,8.779l0.274,0.24Zm51.787,29.753l-0,-0.034c-4.099,0.103 -8.13,-1.161 -11.375,-3.621c-2.904,-2.186 -5.193,-5.09 -6.628,-8.403l7.789,-3.246c0.82,1.982 2.152,3.724 3.86,5.09c1.776,1.435 4.065,2.187 6.388,2.118c2.972,0.171 5.876,-0.956 7.925,-3.074l0,-0.034c2.05,-2.494 3.041,-5.671 2.801,-8.882l0,-2.938l-0.341,0c-2.665,3.109 -6.627,4.817 -10.692,4.578l-0,-0.004c-5.193,0 -10.146,-2.152 -13.664,-5.944l-0.035,-0.034c-3.826,-3.792 -5.944,-8.95 -5.841,-14.313l-0.034,-0.034c-0.103,-5.432 1.981,-10.624 5.841,-14.416l-0.034,0c3.484,-3.826 8.472,-6.012 13.664,-6.012l-0.034,-0c2.152,-0.034 4.304,0.444 6.251,1.366l-0.034,-0.034c1.674,0.717 3.211,1.845 4.407,3.211l0.307,0l0,-3.245l8.472,-0l0,36.381c0.444,5.807 -1.537,11.546 -5.466,15.85l0,-0.034c-3.757,3.553 -8.745,5.466 -13.903,5.295l0.376,0.413Zm0.615,-26.235l-0.034,-0.034c2.937,0.034 5.773,-1.196 7.72,-3.416l-0,-0.034c2.084,-2.426 3.211,-5.568 3.074,-8.745l-0.034,-0c0.103,-3.28 -0.99,-6.457 -3.108,-8.95c-1.948,-2.255 -4.783,-3.519 -7.721,-3.451c-3.04,-0.068 -5.944,1.162 -7.993,3.382l-0.034,0c-2.289,2.357 -3.519,5.534 -3.416,8.814l-0.035,-0c-0.102,3.245 1.128,6.388 3.417,8.711c2.015,2.254 4.919,3.518 7.959,3.45l0.205,0.273Zm33.785,-52.949l-0,59.713l-8.916,-0l-0,-59.713l8.916,0Zm24.458,60.943l-0.034,-0c-5.431,0.136 -10.624,-1.982 -14.381,-5.842c-3.86,-3.86 -5.944,-9.087 -5.773,-14.484l-0.035,-0.034c-0.205,-5.432 1.777,-10.726 5.569,-14.621l-0.035,0c3.519,-3.757 8.506,-5.841 13.665,-5.739l-0,-0.034c2.322,-0.034 4.645,0.41 6.798,1.298c1.947,0.786 3.723,1.913 5.226,3.416l-0.034,-0.034c1.264,1.23 2.425,2.631 3.416,4.134c0.786,1.264 1.435,2.596 2.015,3.996l0.923,2.323l-27.329,11.239l-0.034,-0.034c1.674,3.86 5.603,6.32 9.804,6.149c4.065,-0 7.891,-2.152 10.009,-5.637l6.832,4.612l0,-0.034c-1.776,2.493 -3.996,4.577 -6.558,6.217l-0.035,-0c-3.074,1.913 -6.661,2.938 -10.282,2.835l0.273,0.274Zm-11.409,-20.941l18.173,-7.549c-0.581,-1.332 -1.571,-2.46 -2.835,-3.143l-0.034,-0.034c-1.435,-0.82 -3.075,-1.23 -4.68,-1.196l-0.034,0c-2.802,0.069 -5.432,1.23 -7.345,3.211l-0.034,0c-2.357,2.221 -3.553,5.364 -3.314,8.609l0.103,0.102Zm75.597,20.941l-0,-0.035c-15.577,0.24 -28.387,-12.127 -28.661,-27.67c-0.034,-0.409 -0.034,-0.785 0,-1.161l-0.034,-0.034c-0.376,-15.543 11.922,-28.456 27.465,-28.797c0.376,-0.035 0.752,-0.035 1.127,-0.035l-0.034,0c7.755,-0.273 15.202,3.075 20.257,8.985l-4.919,4.782c-3.723,-4.646 -9.394,-7.276 -15.304,-7.003l-0.034,-0.034c-5.705,-0.137 -11.204,2.05 -15.201,6.081l-0,-0.035c-4.202,4.202 -6.457,9.975 -6.217,15.885l-0.035,0c-0.273,5.91 1.982,11.683 6.183,15.885l-0.034,-0.035c3.997,3.997 9.497,6.184 15.168,6.081c6.593,0.068 12.878,-2.869 17.08,-7.993l4.919,4.919l-0.034,-0c-2.596,3.074 -5.842,5.534 -9.463,7.173l-0.034,0c-3.962,1.811 -8.267,2.699 -12.571,2.665l0.376,0.376Zm35.253,-1.23l-7.071,-0l0,-55.169l7.071,-0l0,55.169Zm11.547,-33.204l-0.035,-0c7.687,-7.686 20.155,-7.686 27.875,-0.034l-0.034,-0.034c3.655,3.86 5.603,9.018 5.466,14.347l-0.034,-0.034c0.136,5.295 -1.811,10.453 -5.466,14.347l0,-0.034c-7.72,7.652 -20.189,7.652 -27.875,-0l-0.034,-0.034c-3.689,-3.894 -5.636,-9.053 -5.466,-14.348c-0.17,-5.329 1.777,-10.487 5.432,-14.381l0.171,0.205Zm5.26,24.254c4.51,4.782 12.059,4.987 16.841,0.444c0.137,-0.171 0.308,-0.308 0.445,-0.478l-0,-0.035c2.493,-2.698 3.791,-6.251 3.621,-9.906l-0,-0.034c0.136,-3.69 -1.162,-7.242 -3.69,-9.907c-4.543,-4.816 -12.093,-5.021 -16.875,-0.478c-0.171,0.137 -0.342,0.273 -0.478,0.444l-0.034,0c-2.528,2.665 -3.826,6.217 -3.656,9.907l-0.034,-0c-0.171,3.621 1.162,7.173 3.69,9.872l0.17,0.171Zm67.262,8.95l-6.832,-0l0,-5.227l-0.205,0l0,-0.034c-1.23,1.981 -2.938,3.587 -4.987,4.714l-0,-0.034c-2.152,1.23 -4.578,1.879 -7.003,1.879l-0,-0.034c-4.065,0.273 -8.028,-1.333 -10.726,-4.304c-2.597,-3.28 -3.895,-7.413 -3.69,-11.547l0,-23.229l7.071,0l0,21.931c0,7.037 3.109,10.556 9.326,10.556c2.801,0.068 5.466,-1.196 7.174,-3.45l-0.034,-0c1.81,-2.323 2.801,-5.227 2.767,-8.165l-0,-20.906l7.071,0l0.068,37.85Zm24.015,1.23l-0.034,-0c-4.885,-0 -9.497,-2.118 -12.639,-5.808l-0.035,-0.034c-3.552,-3.928 -5.465,-9.052 -5.295,-14.313l-0.034,-0.034c-0.17,-5.295 1.743,-10.419 5.295,-14.313l-0.034,-0c3.143,-3.69 7.754,-5.808 12.639,-5.808l0,-0.034c2.665,-0.068 5.329,0.581 7.721,1.845l-0.035,-0.034c2.084,1.024 3.826,2.63 5.125,4.611l0.307,0l-0.307,-5.226l-0,-17.456l7.071,-0l-0,55.169l-6.832,-0l-0,-5.227l-0.308,0l0,-0.034c-1.298,1.947 -3.04,3.553 -5.124,4.612l0,-0.034c-2.391,1.229 -5.021,1.844 -7.652,1.844l0.171,0.274Zm1.161,-6.457c3.212,0.034 6.32,-1.298 8.506,-3.689l0,-0.034c2.392,-2.767 3.621,-6.32 3.382,-9.941l0,-0.034c0.205,-3.655 -1.024,-7.208 -3.45,-9.941c-4.304,-4.748 -11.614,-5.09 -16.329,-0.785c-0.273,0.239 -0.546,0.478 -0.785,0.751l-0.034,0c-2.426,2.699 -3.656,6.251 -3.416,9.907l-0.035,-0c-0.239,3.621 0.991,7.173 3.416,9.872l-0.034,-0.034c2.152,2.425 5.295,3.792 8.54,3.757l0.239,0.171Z" style="fill:#fff;fill-rule:nonzero;"/></g></g></svg>