<?xml version="1.0" encoding="UTF-8" standalone="no"?><!DOCTYPE svg PUBLIC "-//W3C//DTD SVG 1.1//EN" "http://www.w3.org/Graphics/SVG/1.1/DTD/svg11.dtd"><svg width="100%" height="100%" viewBox="0 0 429 100" version="1.1" xmlns="http://www.w3.org/2000/svg" xmlns:xlink="http://www.w3.org/1999/xlink" xml:space="preserve" xmlns:serif="http://www.serif.com/" style="fill-rule:evenodd;clip-rule:evenodd;stroke-linejoin:round;stroke-miterlimit:2;"><rect id="Artboard1" x="0" y="0" width="429" height="100" style="fill:none;"/><clipPath id="_clip1"><rect x="0" y="0" width="429" height="100"/></clipPath><g clip-path="url(#_clip1)"><g><g><path d="M146.261,77.746l0,-23.038l-20.257,-0l0,23.038l-10.342,0l-0,-54.565l10.342,0l0,22.468l20.257,0l0,-22.468l10.342,0l0,54.565l-10.342,0Z" style="fill:#fff;fill-rule:nonzero;"/><path d="M184.635,62.482l-7.347,0c-3.281,0 -4.208,0.927 -4.208,3.923c-0,2.782 0.927,3.994 3.994,3.994c2.925,0 5.635,-0.998 7.561,-2.068c-0.001,0.071 -0.001,-5.849 -0.001,-5.849l0.001,0Zm10.057,15.121l-8.203,0l-0.713,-2.71c-3.566,2.282 -7.632,3.495 -11.912,3.495c-7.275,0 -10.413,-4.993 -10.413,-11.84c-0,-8.131 3.495,-11.198 11.626,-11.198l9.558,-0l-0,-4.209c-0,-4.422 -1.213,-5.991 -7.632,-5.991c-3.638,-0 -7.561,0.499 -11.056,1.212l-1.212,-7.632c3.78,-1.141 9.272,-1.854 13.694,-1.854c12.554,-0 16.192,4.422 16.192,14.408l0.071,26.319Zm19.329,0.785c-4.279,0 -10.057,-0.999 -13.766,-2.282l1.427,-7.632c3.352,0.998 7.774,1.711 11.911,1.711c4.423,0 5.065,-0.998 5.065,-3.994c-0,-2.425 -0.5,-3.709 -6.99,-5.207c-9.772,-2.353 -10.913,-4.85 -10.913,-12.553c-0,-8.06 3.495,-11.555 14.907,-11.555c3.709,-0 8.488,0.499 11.983,1.426l-0.999,7.918c-3.067,-0.571 -7.846,-1.142 -10.984,-1.142c-4.351,0 -5.064,0.999 -5.064,3.424c-0,3.21 0.214,3.424 5.635,4.85c11.126,2.925 12.196,4.423 12.196,12.625c0,7.703 -2.425,12.411 -14.408,12.411m44.152,-0.785l-0,-27.817c-0,-2.14 -0.928,-3.21 -3.21,-3.21c-2.425,0 -6.776,1.498 -10.414,3.353l0,27.674l-9.986,0l0,-56.205l9.986,-1.427l0,20.757c4.422,-2.283 10.343,-3.852 14.551,-3.852c6.633,-0 8.987,4.707 8.987,11.769l0,28.887l-9.914,0l-0,0.071Z" style="fill:#fff;fill-rule:nonzero;"/><path d="M275.505,77.603l9.986,0l-0,-39.871l-9.986,-0l-0,39.871Zm-0,-45.577l9.986,-0l-0,-11.555l-9.986,-0l-0,11.555Zm16.976,5.991c-0,-9.986 5.849,-15.834 19.401,-15.834c5.064,-0 10.342,0.642 14.836,1.783l-1.142,8.916c-4.422,-0.785 -9.557,-1.427 -13.338,-1.427c-7.132,0 -9.415,2.425 -9.415,8.274l0,20.97c0,5.849 2.283,8.274 9.415,8.274c3.781,-0 8.916,-0.571 13.338,-1.427l1.142,8.916c-4.494,1.141 -9.772,1.783 -14.836,1.783c-13.624,0 -19.401,-5.848 -19.401,-15.834c-0,0.214 -0,-24.394 -0,-24.394Zm54.707,7.347c-5.349,-0 -7.346,2.354 -7.346,6.847l-0,10.699c-0,4.494 2.068,6.847 7.346,6.847c5.35,0 7.347,-2.353 7.347,-6.847l-0,-10.699c-0,-4.422 -1.997,-6.847 -7.347,-6.847m0,33.024c-13.694,0 -17.332,-7.561 -17.332,-15.692l-0,-10.057c-0,-8.202 3.709,-15.763 17.332,-15.763c13.695,-0 17.333,7.561 17.333,15.763l-0,10.057c-0,8.203 -3.638,15.692 -17.333,15.692m43.866,-32.311c-3.851,1.712 -6.99,3.495 -10.556,5.849l-0,25.749l-9.986,-0l0,-39.872l8.417,0l0.642,4.422c2.211,-1.497 6.99,-4.279 10.485,-5.278l0.998,9.13Zm14.052,22.753c2.639,0.571 5.991,1.07 8.844,1.07c3.638,0 4.993,-1.712 4.993,-5.349l-0,-14.123c-0,-3.281 -1.213,-5.064 -4.922,-5.064c-3.281,-0 -6.776,1.64 -8.915,3.637l-0,19.829Zm23.894,-4.493c-0,8.844 -3.923,14.122 -13.195,14.122c-3.495,0 -7.561,-0.499 -10.628,-1.141l-0,16.477l-9.986,1.426l0,-57.418l7.917,0l0.999,3.352c3.495,-2.567 7.632,-4.208 12.625,-4.208c8.06,0 12.268,4.779 12.268,13.838l-0.001,13.552l0.001,-0Zm-388.588,-64.337l-39.372,22.682l-0,54.565l14.765,8.559l-0,-54.565l24.607,-14.194l0,-17.047Z" style="fill:#fff;fill-rule:nonzero;"/><path d="M56.104,-0l0,43.438l-15.692,-0l0,-16.263l-14.764,8.56l-0,55.706l14.764,8.559l0,-43.295l15.692,-0l0,16.12l14.765,-8.56l-0,-55.706l-14.765,-8.559Z" style="fill:#fff;fill-rule:nonzero;"/><path d="M56.104,100l39.372,-22.682l0,-54.565l-14.764,-8.559l-0,54.565l-24.608,14.194l0,17.047Z" style="fill:#fff;fill-rule:nonzero;"/></g></g></g></svg>