<?xml version="1.0" encoding="UTF-8" standalone="no"?><!DOCTYPE svg PUBLIC "-//W3C//DTD SVG 1.1//EN" "http://www.w3.org/Graphics/SVG/1.1/DTD/svg11.dtd"><svg width="100%" height="100%" viewBox="0 0 385 100" version="1.1" xmlns="http://www.w3.org/2000/svg" xmlns:xlink="http://www.w3.org/1999/xlink" xml:space="preserve" xmlns:serif="http://www.serif.com/" style="fill-rule:evenodd;clip-rule:evenodd;stroke-linejoin:round;stroke-miterlimit:2;"><rect id="Artboard1" x="0" y="0" width="385" height="100" style="fill:none;"/><clipPath id="_clip1"><rect x="0" y="0" width="385" height="100"/></clipPath><g clip-path="url(#_clip1)"><g><path d="M35.727,0.032l-0.006,-0c-4.811,-0 -8.709,3.898 -8.709,8.709c-0,1.726 0.514,3.416 1.479,4.853l3.72,-3.714l-0.005,-0.006c-0.126,-0.372 -0.189,-0.76 -0.184,-1.149c-0.005,-2.03 1.643,-3.678 3.668,-3.678c2.025,-0.005 3.673,1.643 3.673,3.668c-0,2.025 -1.648,3.673 -3.673,3.673l-0.005,-0c-0.394,-0 -0.777,-0.063 -1.144,-0.184l-3.715,3.715l-0.005,-0.005c3.977,2.696 9.386,1.658 12.088,-2.32c2.697,-3.982 1.658,-9.391 -2.319,-12.093c-1.448,-0.982 -3.153,-1.506 -4.9,-1.501l0.037,0.032Z" style="fill:#34a853;fill-rule:nonzero;"/><path d="M32.264,25.4l-0,-0.005c0.005,-2.944 -0.95,-5.803 -2.718,-8.154l-4.827,4.822l-0.005,-0.005c1.505,2.759 0.965,6.191 -1.323,8.352l2.624,6.412l-0,-0.005c3.882,-2.508 6.233,-6.811 6.233,-11.433l0.016,0.016Z" style="fill:#fbbc04;fill-rule:nonzero;"/><path d="M18.774,32.32l-0.126,0l0,-0c-3.83,-0 -6.931,-3.101 -6.931,-6.926c-0.005,-3.83 3.096,-6.931 6.921,-6.931c1.348,-0.005 2.67,0.393 3.804,1.133l4.78,-4.78c-5.84,-4.737 -14.413,-3.84 -19.146,1.999c-4.738,5.835 -3.841,14.408 1.999,19.141c2.419,1.962 5.441,3.032 8.558,3.032c0.918,0 1.841,-0.094 2.749,-0.278l-2.608,-6.39Z" style="fill:#ea4335;fill-rule:nonzero;"/><path d="M35.91,37.866l-0.005,-0.005c-3.022,-0.005 -6.029,0.435 -8.92,1.301l3.825,9.345l-0.005,-0c1.663,-0.415 3.374,-0.625 5.084,-0.625l-0.005,-0c11.506,-0 20.83,9.334 20.825,20.84c-0.006,11.506 -9.34,20.83 -20.846,20.824c-11.511,-0.005 -20.835,-9.339 -20.83,-20.845c0,-5.525 2.193,-10.824 6.102,-14.728l0,-0.005c1.464,-1.464 3.138,-2.702 4.964,-3.673l-3.783,-9.318l-0.005,-0c-15.321,7.503 -21.659,26.003 -14.156,41.324c7.503,15.315 26.003,21.653 41.323,14.15c15.316,-7.508 21.654,-26.008 14.151,-41.329c-5.189,-10.593 -15.95,-17.304 -27.745,-17.304l0.026,0.048Z" style="fill:#4285f4;fill-rule:nonzero;"/><g><path d="M96.71,12.802l8.684,0l-0,65.548l31.968,0l0,8.254l-40.652,-0l0,-73.802Z" style="fill:#fff;fill-rule:nonzero;stroke:#fff;stroke-width:1px;"/><path d="M149.949,83.051l-0.005,-0.005c-3.925,-2.329 -7.13,-5.687 -9.266,-9.712l-0.005,-0.005c-2.24,-4.176 -3.379,-8.846 -3.321,-13.579l-0.006,-0.005c-0.057,-4.727 1.087,-9.392 3.322,-13.557l-0,-0.006c2.135,-4.029 5.341,-7.387 9.266,-9.712l-0,-0.005c8.279,-4.764 18.473,-4.764 26.758,0c3.919,2.325 7.125,5.688 9.266,9.712c2.23,4.171 3.374,8.841 3.321,13.573c0.053,4.733 -1.091,9.403 -3.326,13.574l-0,-0.005c-2.146,4.019 -5.352,7.377 -9.266,9.706l-0,-0.005c-8.285,4.759 -18.479,4.759 -26.759,-0l0.021,0.031Zm22.037,-6.39l-0,-0.005c2.723,-1.595 4.958,-3.914 6.459,-6.69l-0.006,-0c1.674,-3.138 2.514,-6.658 2.43,-10.21l-0,-0.006c0.078,-3.557 -0.756,-7.077 -2.435,-10.21c-1.495,-2.781 -3.725,-5.094 -6.443,-6.689c-2.634,-1.543 -5.63,-2.346 -8.673,-2.335c-6.349,-0.026 -12.193,3.436 -15.216,9.014l-0.005,-0c-1.674,3.137 -2.508,6.653 -2.424,10.205l-0.005,-0c-0.084,3.552 0.75,7.067 2.424,10.205l-0.005,-0.005c4.575,8.394 15.089,11.49 23.49,6.91c0.131,-0.074 0.262,-0.153 0.393,-0.226l0.016,0.042Z" style="fill:#fff;fill-rule:nonzero;stroke:#fff;stroke-width:1px;"/><path d="M206.394,83.051c-3.919,-2.334 -7.125,-5.692 -9.266,-9.711c-2.235,-4.177 -3.379,-8.846 -3.326,-13.579l-0.005,-0.005c-0.053,-4.728 1.086,-9.392 3.321,-13.563l-0.005,-0c2.14,-4.025 5.346,-7.382 9.26,-9.712l0,-0.005c8.28,-4.764 18.474,-4.764 26.759,-0l-0.005,-0.006c3.919,2.325 7.125,5.683 9.265,9.712c2.23,4.171 3.374,8.841 3.322,13.574c0.052,4.732 -1.092,9.402 -3.327,13.573l0,-0.005c-2.146,4.019 -5.352,7.382 -9.266,9.706l0,-0.005c-8.284,4.759 -18.479,4.759 -26.758,0l0.031,0.026Zm22.037,-6.39l-0,-0.005c2.718,-1.601 4.947,-3.914 6.438,-6.69l-0.006,-0c1.674,-3.143 2.508,-6.658 2.43,-10.21l-0,-0.006c0.078,-3.557 -0.761,-7.072 -2.435,-10.21l-0.005,-0.005c-1.496,-2.781 -3.725,-5.095 -6.443,-6.69c-2.634,-1.542 -5.63,-2.345 -8.673,-2.334c-3.064,-0.016 -6.076,0.792 -8.726,2.324l0,-0.005c-2.744,1.584 -4.989,3.898 -6.495,6.684l-0.005,-0c-1.679,3.132 -2.514,6.653 -2.43,10.205l-0.005,0c-0.089,3.552 0.75,7.073 2.429,10.205l-0.005,-0.005c1.501,2.786 3.746,5.1 6.485,6.689l-0.005,-0.005c2.65,1.532 5.661,2.34 8.725,2.33c3.054,0.015 6.055,-0.787 8.694,-2.33l0.032,0.058Z" style="fill:#fff;fill-rule:nonzero;stroke:#fff;stroke-width:1px;"/><path d="M251.984,12.802l8.678,0l-0,46.655l26.129,-26.544l11.018,0l0,0.409l-22.036,22.252l21.039,30.641l0,0.389l-10.409,-0l-16.753,-25.028l-8.988,9.009l-0,16.019l-8.678,-0l-0,-73.802Z" style="fill:#fff;fill-rule:nonzero;stroke:#fff;stroke-width:1px;"/><path d="M308.014,83.151l-0.005,-0.005c-3.82,-2.298 -6.926,-5.609 -8.972,-9.565l-0.005,-0.005c-2.194,-4.245 -3.301,-8.967 -3.217,-13.742c-0.036,-4.648 0.997,-9.239 3.033,-13.416l-0,-0.005c1.915,-4.019 4.895,-7.429 8.62,-9.864l-0.005,0c3.82,-2.471 8.285,-3.751 12.834,-3.678c4.953,0 9.248,1.107 12.886,3.321c3.615,2.188 6.532,5.373 8.39,9.167c2.004,4.176 3.001,8.772 2.906,13.405l0,-0.005c-0.005,0.86 -0.073,1.721 -0.199,2.571l-40.065,-0c0.2,3.847 1.125,7.086 2.776,9.717c1.516,2.513 3.694,4.57 6.296,5.944l-0.005,-0.005c2.455,1.296 5.194,1.978 7.98,1.983c6.604,0 11.592,-3.039 14.964,-9.118l7.136,3.468l-0.006,-0c-2.035,3.94 -5.078,7.277 -8.825,9.659c-3.767,2.382 -8.293,3.573 -13.578,3.573l-0,-0.005c-4.57,0.073 -9.062,-1.123 -12.986,-3.453l0.047,0.058Zm27.572,-28.742c-0.163,-2.214 -0.771,-4.376 -1.784,-6.343c-1.139,-2.204 -2.854,-4.051 -4.958,-5.357c-2.246,-1.455 -5.086,-2.183 -8.521,-2.183c-3.741,-0.089 -7.361,1.28 -10.111,3.809c-2.773,2.547 -4.59,5.901 -5.451,10.064l30.825,0.01Z" style="fill:#fff;fill-rule:nonzero;stroke:#fff;stroke-width:1px;"/><path d="M350.109,32.924l8.269,-0l-0,9.969l0.409,-0c1.022,-2.862 2.996,-5.245 5.924,-7.152l-0.005,0c2.707,-1.831 5.902,-2.823 9.171,-2.849l-0.005,0c2.098,-0.058 4.181,0.331 6.128,1.123l0,9.292c-2.288,-1.118 -4.806,-1.674 -7.346,-1.642c-2.481,-0.016 -4.911,0.734 -6.946,2.146l-0.006,-0c-2.145,1.469 -3.882,3.452 -5.057,5.771l-0,-0.005c-1.26,2.413 -1.91,5.105 -1.894,7.833l-0,29.167l-8.668,0l0.026,-53.653Z" style="fill:#fff;fill-rule:nonzero;stroke:#fff;stroke-width:1px;"/></g></g></g></svg>