<?xml version="1.0" encoding="UTF-8" standalone="no"?><!DOCTYPE svg PUBLIC "-//W3C//DTD SVG 1.1//EN" "http://www.w3.org/Graphics/SVG/1.1/DTD/svg11.dtd"><svg width="100%" height="100%" viewBox="0 0 435 100" version="1.1" xmlns="http://www.w3.org/2000/svg" xmlns:xlink="http://www.w3.org/1999/xlink" xml:space="preserve" xmlns:serif="http://www.serif.com/" style="fill-rule:evenodd;clip-rule:evenodd;stroke-linejoin:round;stroke-miterlimit:2;"><rect id="Artboard1" x="0" y="0" width="435" height="100" style="fill:none;"/><g><g><g><path d="M151.011,18.255c-0.898,-0.129 -2.652,-0.385 -5.048,-0.385c-14.461,-0 -19.723,8.685 -19.723,21.605l-0,39.104c-0,2.396 0.599,3.038 2.995,3.038l0.599,-0c2.353,-0 2.995,-0.642 2.995,-3.08l-0,-38.891c-0,-9.883 2.866,-15.487 13.006,-15.487c2.096,-0 3.508,0.085 4.877,0.342c2.225,0.342 2.866,-0.257 2.866,-2.567l0,-0.77c0,-2.31 -0.513,-2.824 -2.78,-3.08" style="fill:#fff;fill-rule:nonzero;"/><path d="M233.883,18.896l-0.642,0c-2.396,0 -3.037,0.599 -3.037,3.038l-0,56.218c-0,2.395 0.599,3.037 2.995,3.037l0.598,0c2.354,0 2.995,-0.642 2.995,-3.08l0,-56.261c0,-2.438 -0.641,-3.08 -3.037,-3.08" style="fill:#fff;fill-rule:nonzero;"/><path d="M349.612,17.87c-18.867,-0 -25.242,12.877 -25.242,26.696l0,34.013c0,2.396 0.599,3.038 2.995,3.038l0.599,-0c2.353,-0 2.995,-0.642 2.995,-3.08l-0,-34.056c-0,-10.653 3.85,-20.322 18.568,-20.322c14.674,-0 18.568,9.669 18.568,20.279l-0,34.013c-0,2.396 0.599,3.038 2.995,3.038l0.599,-0c2.353,-0 2.994,-0.642 2.994,-3.081l0,-34.055c0,-13.948 -6.16,-26.74 -25.242,-26.74" style="fill:#fff;fill-rule:nonzero;"/><path d="M85.553,17.698l-0.471,0c-9.241,0 -18.012,4.45 -23.531,11.937c-3.38,4.535 -5.39,9.926 -5.776,15.616c-0.641,8.514 0.3,15.231 2.824,20.536c4.835,10.183 15.231,16.814 26.436,16.814l1.498,0c8.727,0 16.942,-3.979 22.504,-10.696c0.984,-1.241 1.283,-2.481 -0.942,-3.508c-0.299,-0.171 -0.556,-0.3 -0.813,-0.428c-2.267,-1.112 -3.208,-0.513 -4.962,1.198c-4.279,4.064 -9.883,6.503 -15.873,6.503l-1.54,0c-8.685,0 -16.686,-5.134 -20.429,-13.006c-1.284,-2.695 -2.054,-5.947 -2.268,-9.883l47.746,-0c3.68,-0 4.707,-1.84 4.707,-5.562c-0,-16.685 -13.178,-29.82 -29.35,-29.82m-23.103,28.537l0,-0.514c0.3,-4.407 1.84,-8.599 4.407,-12.108c4.235,-5.818 11.038,-9.241 18.14,-9.241l0.428,0c12.065,0 21.991,9.626 22.632,21.777l-45.778,0" style="fill:#fff;fill-rule:nonzero;"/><path d="M26.426,45.811c-4.663,-1.668 -9.027,-3.208 -11.68,-5.818c-1.711,-1.711 -2.652,-3.252 -2.652,-6.418c-0,-3.765 2.182,-6.032 4.021,-7.273c2.482,-1.711 5.947,-2.652 9.712,-2.652c5.733,-0 10.354,2.182 12.45,3.337c2.054,1.112 3.679,0.299 4.492,-0.77c0.086,-0.214 0.214,-0.385 0.343,-0.599c0.727,-1.369 0.812,-2.396 -0.129,-3.081c-0.642,-0.47 -6.845,-5.005 -17.755,-5.005c-5.476,-0 -10.482,1.454 -14.118,4.192c-3.937,2.91 -5.99,7.017 -5.99,11.809c-0.043,4.492 1.326,8.043 4.15,10.824c3.551,3.551 8.856,5.391 13.99,7.187c4.663,1.626 9.07,3.166 11.766,5.819c2.224,2.225 3.251,4.492 3.251,7.402c0,7.316 -5.947,11.679 -15.873,11.679c-6.888,0 -12.706,-2.994 -15.102,-4.278c-1.412,-0.77 -1.883,-0.642 -3.038,1.07c-0.128,0.171 -0.214,0.342 -0.342,0.513c-1.027,2.011 -0.385,3.38 0.941,4.278c0.727,0.514 1.07,0.728 3.722,1.797c3.038,1.198 8.001,2.653 14.204,2.653c6.632,-0 12.194,-1.669 16.087,-4.792c3.979,-3.251 6.118,-7.915 6.118,-13.605c0,-4.535 -1.455,-8.043 -4.706,-11.252c-3.765,-3.722 -9.156,-5.647 -14.418,-7.487" style="fill:#fff;fill-rule:nonzero;"/><path d="M213.604,18.896l-0.77,0c-2.396,0 -3.166,0.599 -3.808,2.91c-4.749,15.701 -9.455,31.403 -14.204,47.104c-1.712,5.562 -2.995,7.273 -5.477,7.273c-2.481,0 -3.807,-1.754 -5.476,-7.315l-14.204,-47.148c-0.642,-2.31 -1.412,-2.952 -3.808,-2.952l-0.77,0c-2.396,0 -2.909,0.599 -2.267,2.909c4.492,15.017 9.027,30.077 13.562,45.137c3.551,11.851 5.99,15.274 12.835,15.274c6.803,-0 9.241,-3.466 12.835,-15.317c4.492,-15.06 9.027,-30.119 13.563,-45.179c0.598,-2.311 0.085,-2.952 -2.268,-2.952" style="fill:#fff;fill-rule:nonzero;"/><path d="M301.181,25.656c-5.519,-5.219 -12.578,-8.086 -19.937,-8.086l-0.47,0c-2.696,0 -5.348,0.342 -7.872,1.07c-7.017,1.968 -13.178,6.674 -17.028,12.963c-2.097,3.38 -3.423,7.145 -4.065,11.552c-0.513,3.422 -0.599,7.273 -0.299,11.765c0.513,7.402 3.85,14.333 9.327,19.509c5.476,5.134 12.492,8.001 19.851,8.001l0.428,-0c2.567,-0 5.134,-0.385 7.615,-1.027c5.862,-1.626 11.21,-5.22 15.06,-10.011l0,6.802c0,2.396 0.599,3.038 2.995,3.038l0.599,-0c2.353,-0 2.995,-0.642 2.995,-3.08l-0,-27.082c0.043,-2.14 -0.086,-4.193 -0.171,-6.118c-0.556,-7.488 -3.851,-14.461 -9.327,-19.638m-0.813,39.446c-3.038,4.792 -7.829,8.429 -13.22,9.883c-1.925,0.514 -3.936,0.77 -5.904,0.77l-0.471,0c-5.647,0 -11.123,-2.224 -15.359,-6.246c-4.278,-4.022 -6.845,-9.37 -7.23,-15.103c-0.642,-8.556 0.385,-14.503 3.337,-19.295c2.952,-4.877 7.744,-8.514 13.134,-10.054c1.925,-0.556 3.979,-0.856 6.033,-0.856l0.428,0c5.647,0 11.08,2.182 15.316,6.204c4.236,4.022 6.803,9.369 7.188,15.102c0.385,5.776 0.342,13.221 -3.466,19.339" style="fill:#fff;fill-rule:nonzero;"/><path d="M431.585,78.152l0,-0.728c0,-2.695 -0.727,-3.38 -3.379,-3.38l-38.163,0c-2.696,0 -3.38,0.685 -3.38,3.337l-0,0.685c-0,2.653 0.684,3.337 3.337,3.337l38.12,0c2.653,0 3.337,-0.727 3.337,-3.38" style="fill:#e86d3b;"/></g></g></g></svg>